<?xml version="1.0" encoding="UTF-8"?>
<!DOCTYPE svg PUBLIC "-//W3C//DTD SVG 1.1//EN" "http://www.w3.org/Graphics/SVG/1.1/DTD/svg11.dtd">
<!-- Creator: CorelDRAW 2021 (64 Bit) -->
<svg xmlns="http://www.w3.org/2000/svg" xml:space="preserve" width="210mm" height="297mm" version="1.1" style="shape-rendering:geometricPrecision; text-rendering:geometricPrecision; image-rendering:optimizeQuality; fill-rule:evenodd; clip-rule:evenodd"
viewBox="0 0 21000 29700"
 xmlns:xlink="http://www.w3.org/1999/xlink"
 xmlns:xodm="http://www.corel.com/coreldraw/odm/2003">
 <defs>
  <style type="text/css">
   <![CDATA[
    .str0 {stroke:black;stroke-width:20;stroke-linecap:square;stroke-miterlimit:22.9256}
    .fil0 {fill:none}
   ]]>
  </style>
 </defs>
 <g id="Camada_x0020_1">
  <metadata id="CorelCorpID_0Corel-Layer"/>
  <g id="_1934272176832">
   <path class="fil0 str0" d="M9646.04 11606.84c-41.65,16.02 -30.35,27.32 -14.32,-14.33m171.9 -85.95l-56 31.19c-46.42,39.11 -51.06,42.06 -101.58,69.09l-14.32 -14.33c24.03,-39.84 20.99,-35.32 57.3,-71.63 15.69,-39.13 19.63,-43.16 28.65,-85.95"/>
   <path class="fil0 str0" d="M9603.06 11635.49l-14.32 0m-315.16 -687.63c-38.49,66.69 -55.88,233.56 -42.98,315.16 38.65,119.2 70.65,176.92 114.6,286.52 31.02,33.65 33.83,36.88 57.31,71.62 55.05,-95.39 28.65,-256.14 28.65,-372.46 -21.13,-61.07 -52.26,-134.92 -57.3,-200.56 -44.43,-54.78 -37.18,-61.67 -100.28,-100.28l0 -42.98m-300.84 415.45c-39.81,48.01 -37.94,46.14 -85.95,85.95 -8.37,108.87 -60.27,115.32 -128.93,286.51 34.37,79.59 39.66,65.12 14.32,143.25 121.04,175.22 447.23,41.99 573.02,-57.3m-372.46 -501.39l0 42.98c44.25,75 40.82,122.7 171.91,229.21 64.54,42.2 62.73,56.44 128.93,57.3 -22.25,-83.68 -170.97,-288.27 -214.88,-315.17 -50.59,-16.4 -29.63,-13.09 -85.96,-14.32 1.31,-60.05 13.02,-68.88 14.33,-128.93 40.54,-56.91 28.65,-23.08 28.65,-100.28 27.27,-172.52 -2.91,-161.54 57.3,-243.53l57.3 0c53.18,53.17 72.69,81.52 143.26,100.27 43.52,-134.23 -30.85,-118.31 71.62,-186.23 119.61,68.1 132.56,219.93 157.59,300.84 32.5,56.33 24.09,56.39 42.97,114.61 13.11,77.44 40.31,184.1 28.66,257.85l-42.98 229.21c41.4,17.83 5.2,10.24 57.3,14.33l0 57.3c-57.78,39.92 -51.85,47.82 -100.28,100.28 -52.33,34.23 -55.48,-18.02 -114.6,100.28 -60.16,120.38 -83.93,81.18 -114.61,71.62 28.23,-98.18 90.58,-76.47 85.95,-186.23 36.54,-13.79 14.86,7.88 28.66,-28.65"/>
   <path class="fil0 str0" d="M10906.69 12237.16c62.45,-11.8 63.69,-6.7 114.61,-42.97m57.3 -14.33c-33.04,15.89 -6.19,14.33 -57.3,14.33l-14.33 -14.33m171.91 -14.33c-29.71,18.49 5.06,14.33 -42.98,14.33m85.95 -28.65c-29.7,18.49 5.07,14.32 -42.97,14.32m-802.23 85.96c48.85,-40.71 101.54,-151.1 143.25,-214.89l85.95 -85.95c17.31,-25.89 28.69,-44.91 42.98,-71.63m71.63 -28.65l-14.33 0m57.31 -28.65c-36.68,22.83 -6.3,22.83 -42.98,0m85.95 -14.32c-29.7,18.48 5.07,14.32 -42.97,14.32l-14.33 -14.32m85.95 -14.33l-28.65 14.33m71.63 -28.66c-29.71,18.5 5.06,14.33 -42.98,14.33m100.28 -28.65c-33.03,15.88 -6.19,14.32 -57.3,14.32m114.6 -28.65c-33.03,15.89 -6.19,14.33 -57.3,14.33m286.51 372.46c105.19,-19.87 271.95,-28.55 128.93,-229.21l-186.23 -157.58 -171.91 0m-888.18 2392.37c-47.8,22.23 -44.53,24.37 -100.28,28.65 -110.07,34.06 -331.01,197.99 -415.44,300.84 -108.86,132.6 -213.06,387.98 -85.95,544.37 39.42,48.51 170.06,99.41 200.56,100.28 61.74,-20.02 75.71,-14.33 143.25,-14.33 101.02,-34.95 164.08,-58.43 257.86,-114.6m0 -873.86l0 28.65c88.91,0 200.73,-17.61 257.86,71.63 67.47,105.39 -91.26,291.74 -200.56,343.81 -153.12,72.94 -164.22,40.22 -200.56,14.33m-214.88 -1031.44c48.07,15.58 181.32,36.22 229.21,28.65 81.73,-12.92 281.47,-83.41 315.16,-200.56m-57.3 0c-67.43,26.18 -52.95,21.26 -114.6,-14.32m-143.26 -28.66c-41.9,-48.79 -158.79,-39.96 -214.88,0m-128.93 -71.62c48.26,-29.53 58.23,-43.91 100.27,-85.95 -55.83,12.48 -61.45,22.49 -100.27,85.95l-28.66 42.98m171.91 -171.91c71.86,13.57 92.22,38.27 157.58,14.32m-358.13 214.89c7.52,-14.51 21.12,-42.8 28.64,-57.3 -96.49,61.72 -40.88,39.68 -28.64,57.3 73.47,26.92 43.34,1.86 128.93,0l57.3 -28.66c49.01,19.03 27.06,14.33 85.95,14.33 59.46,-19.28 63.83,-14.33 128.93,-14.33 44.81,3.45 102.48,15.44 143.26,28.66 47.98,-9.56 62.47,-5.91 114.6,14.32l57.3 0c9.56,-94.96 -243.23,-243.45 -243.53,-243.53l-114.61 14.32 0 -128.93c-33.58,-33.58 -24.17,-22.99 -57.3,-42.97m-243.53 487.06c51.01,49.91 56.38,54.81 114.6,85.96 19.79,34.76 9.55,23.87 42.98,57.3 66.24,0 155.28,-16.89 200.55,42.98 63.73,84.26 -85.34,193.98 -100.27,286.51 -9.11,56.44 14.82,118.59 56.79,157.91 72.73,41.35 72.03,28.32 158.09,28.32 170.04,-68.2 564.33,-378.29 687.62,-530.05 41.14,-62.9 85.1,-145.01 128.93,-200.55 16.5,-87.28 121.89,-414.32 157.59,-501.4m57.3 -730.6c49.01,-19.03 27.06,-14.33 85.95,-14.33l0 14.33c71.81,23.28 162.53,14.32 243.54,14.32 128.99,131.87 95.23,181.51 100.28,200.56 5.2,9.15 23.44,47.38 28.65,57.3 0,73.99 7.31,119.5 -14.33,186.24 -59.55,74.79 -294.4,91.45 -344.55,141.91 -27.45,48.41 -34.7,70.09 -70.89,115.95 -56.33,1.23 -35.37,-2.08 -85.95,14.32 -49.8,-28.74 -132.27,-64.3 -186.23,-85.95 -74.4,-68.68 -162.27,-133.08 -243.54,-186.23l-57.3 0m-286.51 -1489.86c65.75,-113.93 -9.38,-61.51 74.28,-184.89 49.78,-73.42 104.26,-155.17 197.9,-173.25 98.97,-19.11 171.74,96.67 157.58,186.23 -20.64,63.67 -14.32,87.78 -14.32,157.58 101.73,101.73 178.11,144.52 200.55,286.51 15.4,97.4 -5.51,253.27 -71.62,329.49 -39.49,32.03 -61.15,47.68 -100.28,85.96l-28.65 14.32 -14.33 28.65 -57.3 28.65c-58.95,31.54 -128.82,75.9 -171.91,128.93 -58.7,72.26 -93.4,153.97 -100.27,243.54 4.22,194.03 56.78,157.31 157.57,286.51 29.67,49.53 16.09,39.67 57.31,71.63 2.9,133.26 56.99,76.32 14.32,186.23 -123.81,-82.06 -38.73,-222.45 -214.88,-257.86 -47.2,-3.63 -86.39,-14.86 -128.93,-28.65 -79.01,-48.99 -60.37,-147.6 -186.23,-171.91m71.63 -114.61c-16.16,-22.26 -31.24,-42.34 -42.98,-57.3m-329.49 744.93c-16.76,-66.28 -22.87,-14.37 14.33,-71.62 79.77,45.42 4.39,20.12 128.04,73.53 59.17,-26.55 71.54,-48.89 129.82,-73.53 84.78,103.45 89.41,-58.74 71.63,-114.61 -15.65,-49.14 -63.93,-89.85 -85.96,-229.21 0,-85.16 -18.85,-109.65 42.98,-157.58l0 -71.63c13.94,-42.05 10.85,-26.35 14.32,-71.62 -74.81,-36.42 -218.01,-136.63 -300.83,-186.24l-85.95 0m601.67 -830.88l157.58 200.56c28.42,82.13 37.92,145.16 71.62,229.21 -11.18,59.21 -31.26,109.92 -42.97,171.9 -157.9,200.07 -124.12,361.79 -200.56,558.7 -87.78,-95.26 -55.43,-126.75 -71.63,-229.21l-28.65 -186.23c37.57,-255.7 0.1,-251.75 0,-300.84 15.25,-80.67 32.48,-166.97 57.31,-243.53 10.89,-68.96 -4.26,-149.27 57.3,-200.56l0 -57.3c-97.27,-75.4 -59.49,-270.41 -300.84,-372.46 -124.29,74.96 -73.09,119.2 -85.95,200.55 -24.23,153.24 -28.22,406.3 0,573.02l71.62 300.84c35.67,61.8 139.66,301.99 114.61,343.81 -0.06,-0.05 -189,-247.86 -257.86,-272.18l-57.3 0m1303.62 257.86l42.98 0 0 28.65 -57.3 0c-39.27,-24.92 -22.73,-18.98 -71.63,0 -64.86,6.4 -63.69,8.8 -100.28,57.3 -64.27,25.78 -92.73,57.96 -157.58,71.63"/>
   <path class="fil0 str0" d="M8929.76 13125.35c18.49,-29.7 14.33,5.06 14.33,-42.98m-358.14 -687.63c-58.19,-96.47 -56.23,-26.84 -85.95,-214.88l0 -171.91c17.35,-27.1 22.03,-31.35 42.97,-57.3m544.37 845.21c-23.46,-60.46 -14.32,-130 -14.32,-200.56 -62.31,-192.17 -32.61,-224.34 -157.58,-415.44 -46.11,-56.75 -248.51,-214.74 -300.84,-229.21l-71.63 0m-85.95 1203.35l0 -14.33m-28.65 0c16.81,74.51 25.1,5.72 -14.33,85.96 31.32,78.09 53.21,119.72 114.61,186.23 95.42,0 147.68,-36.73 243.53,-114.6 67.92,-55.19 83.32,-112.33 143.26,-186.24m85.95 -143.25c-15.94,39.74 -37,76.65 -57.3,114.6 -36.53,13.79 -14.86,-7.88 -28.65,28.65l14.32 14.33c26.47,80.96 38.29,33.34 100.28,-28.65m14.33 14.32c15.88,-33.03 14.33,-6.19 14.33,-57.3m0 -28.65l0 28.65c-38.62,23.75 -21.73,-1.4 -28.66,42.98l14.33 14.32c-6.7,67.89 -52.07,129.66 -85.96,186.24l-14.32 157.57c-20.05,61.82 -23.63,53.74 0,114.61 269.73,-56.85 252.1,-188.92 315.16,-315.16 27.03,-50.52 29.98,-55.17 71.63,-100.28 16.94,-41.96 3.57,-125.45 0,-171.91l114.61 -42.98m-272.19 -200.55c-38.55,45.03 -26.36,33.4 -85.96,57.3 -27.82,69.37 -54.36,79.06 -42.97,143.25 79.23,-46.74 109.51,-65.43 128.93,-157.58 89.11,-25.62 184.79,-135.82 229.21,-171.9l300.84 -229.21 100.27 0c50.17,55.66 84.46,59.71 -85.95,257.86 -14.03,16.31 -112.12,87.3 -157.58,143.25 -24.48,37.43 -42.26,64.07 -71.63,100.28m-300.83 -171.9l-14.33 28.65c-19.1,-19.1 -19.1,-9.56 0,-28.65m272.19 -286.52c-31.45,149.2 -124.86,131.63 -214.89,243.54 -28.34,44.26 -7.49,16.45 -42.97,42.98l-14.33 0c7.73,-40.9 16.11,-75.94 28.65,-114.61l0 -214.88 42.98 -85.96m-558.7 716.28c-80.96,34.23 -145.83,93.67 -229.21,128.93l-28.65 0c-67.36,-45.72 -42.98,-109.87 -42.98,-200.56 39.1,-57.85 77.05,-91.37 128.93,-143.25 66.04,-26.49 71.92,-20.24 128.93,-71.63m42.98 0c42.23,6.34 18.48,8.22 57.3,-14.32 -68.09,-21.68 -19.22,-28.67 -57.3,14.32l-42.98 0c-114.9,-81.86 -32.96,24.34 -157.58,-100.28 0,-71.84 4.68,-181.78 28.65,-243.53 42.05,13.93 26.35,10.84 71.63,14.32l114.6 57.31"/>
   <path class="fil0 str0" d="M9373.86 13870.28l-31.2 -56c-28.47,-34.97 -31.28,-38.18 -54.76,-72.93m-28.65 -42.98c0.82,21.4 -48.22,3.07 28.65,42.98 -10.75,-28.48 -0.77,-15.1 -28.65,-42.98m-14.32 1289.3c67.22,-167.63 127.57,-268.58 157.58,-458.42 11.67,-73.82 26.25,-339.99 14.32,-415.44 -12.76,-80.72 -42.97,-156.47 -42.97,-243.53 90.21,25.94 244.89,174.39 300.83,200.55l143.26 42.98"/>
   <path class="fil0 str0" d="M7525.86 14099.48c48.14,-49.21 44.85,-45.26 71.63,-100.27"/>
   <path class="fil0 str0" d="M13485.29 14973.34c187.99,-54.05 168.65,-337.03 143.26,-487.06 -25.04,-147.91 -107.45,-544.38 171.9,-544.38 125.69,0 247.48,137.32 272.19,200.56 1.44,3.69 35.35,158.18 28.65,200.56 -18.02,55.57 -14.69,59.48 -42.98,114.6"/>
   <path class="fil0 str0" d="M7368.28 14973.34c-158.05,84.56 -197.21,115.08 -372.47,171.91l-243.53 0c-73.84,-22.61 -125.76,-141.57 -100.28,-214.88 33.99,-97.81 340.83,-238.93 401.11,-286.52 -2.25,-103.28 -34.84,-87.41 -57.3,-171.9m329.49 -57.3c18.08,58.03 -11.67,27.48 57.3,57.3 39.2,4.36 219.83,-65.83 243.54,-143.26l0 -71.62c-33.66,-31.02 -36.88,-33.82 -71.63,-57.31l-257.86 14.33c-46.33,12.95 -287.16,119.19 -300.84,257.86 -104.03,-21.93 -70.78,-60.91 -229.2,-85.95 -157.52,-24.9 -558.73,198.66 -744.94,100.28 -102.25,-54.03 -150.56,-227.08 -42.97,-358.14 78.54,-95.68 217.86,-163.59 343.81,-143.26 42.05,13.94 26.35,10.85 71.63,14.33"/>
   <line class="fil0 str0" x1="8098.88" y1="14801.44" x2="8084.56" y2= "14801.44" />
   <path class="fil0 str0" d="M8800.83 15016.32c11.71,-43.09 6.25,-28.91 28.65,-71.63 -9.99,-30.16 -15.51,-43.38 -28.65,-71.62 -81.34,26.37 -118.79,1.05 -214.88,143.25m-358.14 -28.65c4.97,64.67 2.78,49.34 42.98,100.28l157.58 0c52.35,-31.36 97.27,-58.92 157.58,-71.63 52.81,77.81 86.35,42.66 157.58,0l57.3 0c6.99,69.26 -6.11,44.22 57.31,71.63 74.72,-15.75 90.67,-43.34 157.58,-71.63 41.94,-38.72 68.41,-58.7 114.6,-85.95m-1174.69 42.97c32.66,-32.66 24.19,-21.11 42.97,-57.3m-601.67 143.26c43.15,-34.82 21.63,-22.48 71.63,-42.98 58.02,-53.56 98.15,-70.8 157.58,-128.93m730.6 42.98c68.38,-5.26 64.7,-3.61 100.28,-57.3 -44.37,-51.67 -42.69,-27.92 -114.6,-14.33 -47.24,47.24 -81.48,74.78 -114.61,128.93l-57.3 0c-63.53,58.65 -85.37,84.07 -171.91,85.95 -55.15,-61.18 -41.22,-19.98 -42.97,-100.28 -156.31,32.94 -197.41,180.06 -329.49,85.96 14.02,-66.55 9.69,-48.71 57.3,-100.28 7.6,-82.25 30.78,-35.52 -57.3,-71.63 25.72,-62.74 1.45,-26.26 42.97,-57.3"/>
   <path class="fil0 str0" d="M12124.37 15002c-45.28,15.33 -32.75,7.09 -85.96,57.3m-816.56 -28.66c67.08,46.33 61.29,23.8 143.26,-14.32m1360.93 0c11.7,-43.09 6.24,-28.91 28.65,-71.63 -10,-30.16 -15.52,-43.38 -28.65,-71.62 -101.55,32.92 -57.39,-13.19 -143.26,57.3 -39.31,39.31 -44.4,41.45 -71.63,85.95m-372.46 -14.32c-23.76,-38.62 1.39,-21.73 -42.98,-28.66m200.56 -42.97c-20.04,61.82 -23.62,53.74 0,114.6 49.01,19.03 27.07,14.33 85.96,14.33 50.19,-20.14 73.26,-32.46 128.92,-42.98 19.31,60.53 4.73,42.98 85.96,42.98 27.1,-17.36 31.35,-22.04 57.3,-42.98l71.63 0c6.98,69.26 -6.12,44.22 57.3,71.63 104.71,-22.07 177.41,-106.88 272.19,-157.58m-959.82 28.65c-3.8,-46.35 -39.05,-22.35 28.66,-28.65m-343.82 42.97c0,58.89 -4.7,36.94 14.33,85.96 149.46,58.02 173.29,-131.84 300.83,-100.28l0 14.32c12.18,20.09 -12.99,2.73 28.66,28.66l14.32 0c58.11,-31.09 91.04,-57.61 157.58,-71.63l28.65 -28.66m-959.81 71.63c72.59,0 63.11,-1.2 200.56,-114.6 98.06,-80.91 366.49,-318.34 386.79,-444.09l0 -71.63c-126.92,-49.27 -186.92,44.25 -272.19,114.6 -71.35,58.87 -168.22,155.36 -214.88,229.21 -43.33,68.59 -100.28,200.49 -100.28,286.51l0 42.98c33.56,30.92 36.71,33.96 71.63,57.3l128.93 0c66.37,-39.75 138.66,-84.21 214.88,-100.28 12.28,-20.35 30.7,-51.26 42.98,-71.63m-630.33 0c57.57,-22.34 42.71,-22.34 100.28,0 -15.2,72.15 -17.54,59.32 -71.63,114.61m-171.91 0c0,57.2 -2.87,28.27 14.33,71.63l71.63 0c37.24,-30.2 45.56,-35.69 85.95,-57.31l0 -14.32c-43.1,-37.02 -35.18,-67.35 -28.65,-114.61 -33.65,12.11 -26.89,7.96 -57.3,14.33 -42.05,42.05 -56.42,52.01 -85.96,100.28 -164.27,31.73 -158.16,124.21 -272.18,42.98 11.47,-116.31 80.31,-70.03 42.98,-171.91m-415.45 128.93c11.72,-43.09 6.25,-28.91 28.66,-71.63 -10,-30.16 -15.52,-43.38 -28.66,-71.62 -99.76,32.34 -59.59,-12.15 -143.25,57.3 -54.09,55.29 -56.42,42.46 -71.63,114.6 110.91,43.05 110.23,-16.99 143.26,-28.65l71.62 0c9.27,91.91 53.25,80.78 128.93,42.98 159.74,-79.79 134,-97.88 243.54,-171.91m14.32 -28.65l-14.32 28.65 42.98 0c-13.79,-36.53 7.88,-14.86 -28.66,-28.65l0 -28.65"/>
   <path class="fil0 str0" d="M8485.67 16004.78c-60.51,0 -47.7,6.09 -100.28,-14.32l0 -214.88"/>
   <path class="fil0 str0" d="M9044.37 16004.78l-128.93 0c-3.44,-81.45 62.37,-135.01 114.6,-214.88 -56.42,-21.9 -65.43,-14.32 -128.93,-14.32"/>
   <path class="fil0 str0" d="M10433.95 15990.46c67.38,20.38 92.42,18.15 114.6,-57.3 -31.06,-46.87 -68.53,-52.13 -114.6,-85.95l0 -57.31c52.58,-20.41 39.76,-14.32 100.27,-14.32"/>
   <line class="fil0 str0" x1="11551.34" y1="15990.46" x2="11551.34" y2= "15775.58" />
   <path class="fil0 str0" d="M11866.51 15976.14l-56 31.19 -88.39 -43.29c-18.15,-61.69 -13.2,-66.06 -13.2,-131.16 17.36,-27.11 22.04,-31.35 42.98,-57.3l114.61 0"/>
   <path class="fil0 str0" d="M10763.44 15990.46l0 -214.88m71.62 0l-71.62 0 -85.96 0"/>
   <path class="fil0 str0" d="M11322.13 15990.46l0 -214.88m71.63 0l-71.63 0 -85.95 0"/>
   <path class="fil0 str0" d="M7798.04 15890.18c0,62.03 -6.96,59.76 14.33,114.6 80.85,0 85.91,11.38 143.26,-71.62 -33.58,-33.58 -24.18,-23 -57.31,-42.98m-85.95 -114.6c-21.29,54.84 -14.33,52.57 -14.33,114.6l100.28 0c12.28,-20.36 30.7,-51.27 42.98,-71.63 -43.08,-63.47 -43.73,-42.97 -128.93,-42.97"/>
   <path class="fil0 str0" d="M8213.49 16004.78l-100.29 0c-21.28,-54.84 -14.32,-52.57 -14.32,-114.6m100.28 0l-100.28 0c0,-62.03 -6.96,-59.76 14.32,-114.6l100.29 0"/>
   <path class="fil0 str0" d="M8743.53 16004.78l-85.95 0c-21.29,-54.84 -14.33,-52.57 -14.33,-114.6m85.96 0l-85.96 0c0,-62.03 -6.96,-59.76 14.33,-114.6l85.95 0"/>
   <path class="fil0 str0" d="M10276.37 16004.78c-62.03,0 -59.77,6.97 -114.61,-14.32l0 -100.28m85.96 0l-85.96 0 0 -100.28c54.84,-21.29 52.58,-14.32 114.61,-14.32"/>
   <path class="fil0 str0" d="M11107.25 16004.78c-62.03,0 -59.77,6.97 -114.61,-14.32l0 -100.28m85.96 0l-85.96 0c0,-62.03 -6.96,-59.76 14.33,-114.6l100.28 0"/>
   <path class="fil0 str0" d="M9832.27 15990.46l-28.65 -28.65m0 -14.33l14.33 -28.65m-114.6 -42.98c-55.16,61.19 -41.23,19.99 -42.98,100.29l55.99 31.19c43.79,-17.25 58.14,-23.41 87.26,-45.52l0 -14.33c-41.12,-25.16 -59.15,-46.47 -100.27,-71.63 -6.02,-31.84 -11.72,-51.94 -14.33,-85.95 54.98,-39.17 24.34,-36.9 85.95,-14.32"/>
   <path class="fil0 str0" d="M9330.88 15933.16c21.19,25.11 26.42,31.31 42.98,57.3m-157.59 -57.3l114.61 0c-5.52,-71.82 -22.16,-98.9 -57.3,-157.58 -44.62,56.52 -55.69,83.62 -57.31,157.58 -41.8,34.61 -13.42,-4.86 -42.97,57.3"/>
   <path class="fil0 str0" d="M12153.01 15933.16c41.53,31.04 17.26,-5.45 42.98,57.3m-157.58 -57.3l114.6 0c-1.45,-66.78 -11.79,-89.24 -42.97,-143.26 -58.23,38.59 -66.01,70.07 -71.63,143.26 -21.19,25.11 -26.42,31.31 -42.97,57.3"/>
  </g>
 </g>
</svg>
